<svg version="1.1" xmlns="http://www.w3.org/2000/svg" viewBox="0 0 505.04000569373613 518.8108575904037" width="1515.1200170812085" height="1556.432572771211">
  <!-- svg-source:excalidraw -->
  
  <defs>
    <style class="style-fonts">
      @font-face {
        font-family: "Virgil";
        src: url("https://excalidraw.com/Virgil.woff2");
      }
      @font-face {
        font-family: "Cascadia";
        src: url("https://excalidraw.com/Cascadia.woff2");
      }
    </style>
    
  </defs>
  <g transform="translate(40.601893103705734 378.7528118996542) rotate(0 67.32416482815266 -175.960885346308)" stroke="none"><path fill="#1e1e1e" d="M -1.30,-0.17 Q -1.30,-0.17 -0.42,-6.76 0.45,-13.36 -0.49,-29.68 -1.44,-46.00 -3.16,-69.69 -4.88,-93.39 -5.61,-121.97 -6.35,-150.55 -4.02,-174.64 -1.68,-198.73 0.18,-213.36 2.05,-227.98 2.84,-234.63 3.64,-241.27 3.68,-241.43 3.72,-241.58 3.79,-241.72 3.86,-241.86 3.97,-241.98 4.08,-242.09 4.21,-242.18 4.34,-242.27 4.49,-242.33 4.63,-242.38 4.79,-242.40 4.95,-242.42 5.11,-242.40 5.26,-242.38 5.41,-242.32 5.56,-242.26 5.69,-242.17 5.82,-242.08 5.92,-241.96 6.03,-241.84 6.10,-241.70 6.17,-241.56 6.21,-241.41 6.25,-241.25 6.24,-241.10 6.24,-240.94 4.71,-238.64 3.18,-236.34 -3.92,-210.60 -11.03,-184.87 -16.28,-147.54 -21.52,-110.21 -20.36,-86.30 -19.21,-62.39 -7.46,-54.99 4.28,-47.58 24.25,-63.66 44.22,-79.73 65.44,-114.12 86.65,-148.52 104.48,-189.07 122.32,-229.63 133.40,-267.50 144.49,-305.37 150.10,-323.70 155.70,-342.02 155.76,-342.17 155.83,-342.32 155.92,-342.44 156.02,-342.57 156.14,-342.67 156.26,-342.77 156.41,-342.84 156.55,-342.90 156.70,-342.93 156.86,-342.96 157.02,-342.96 157.18,-342.95 157.33,-342.91 157.48,-342.86 157.62,-342.78 157.75,-342.70 157.87,-342.59 157.98,-342.48 158.06,-342.35 158.15,-342.21 158.20,-342.06 158.25,-341.91 158.26,-341.76 158.27,-341.60 158.25,-341.44 158.22,-341.29 156.60,-337.97 154.99,-334.66 145.56,-303.48 136.13,-272.30 122.87,-225.59 109.61,-178.88 95.16,-136.99 80.72,-95.10 71.51,-66.77 62.30,-38.43 60.07,-24.11 57.85,-9.79 66.06,-2.55 74.26,4.68 78.62,7.84 82.98,11.01 83.13,11.16 83.28,11.32 83.38,11.51 83.47,11.70 83.50,11.91 83.52,12.12 83.48,12.33 83.44,12.54 83.34,12.72 83.23,12.90 83.07,13.05 82.91,13.19 82.72,13.27 82.52,13.35 82.31,13.37 82.10,13.38 81.89,13.33 81.69,13.28 81.51,13.16 81.33,13.05 81.20,12.88 81.06,12.71 80.99,12.51 80.92,12.31 80.92,12.10 80.91,11.89 80.98,11.69 81.04,11.48 81.16,11.31 81.29,11.14 81.46,11.02 81.64,10.90 81.84,10.83 82.04,10.77 82.26,10.78 82.47,10.79 82.67,10.86 82.87,10.94 83.03,11.07 83.19,11.20 83.31,11.38 83.42,11.56 83.47,11.77 83.52,11.98 83.50,12.19 83.48,12.40 83.40,12.60 83.31,12.79 83.17,12.95 83.03,13.10 82.84,13.21 82.66,13.31 82.45,13.35 82.24,13.39 82.03,13.36 81.82,13.33 81.63,13.23 81.44,13.14 81.44,13.14 81.44,13.14 76.97,9.88 72.50,6.62 64.06,-1.25 55.62,-9.14 57.71,-24.19 59.80,-39.24 69.02,-67.60 78.23,-95.96 92.66,-137.77 107.08,-179.59 120.35,-226.33 133.61,-273.07 143.12,-304.44 152.63,-335.82 154.16,-338.92 155.70,-342.02 155.76,-342.17 155.83,-342.32 155.92,-342.44 156.02,-342.57 156.14,-342.67 156.26,-342.77 156.41,-342.84 156.55,-342.90 156.70,-342.93 156.86,-342.96 157.02,-342.96 157.18,-342.95 157.33,-342.91 157.48,-342.86 157.62,-342.78 157.75,-342.70 157.87,-342.59 157.98,-342.48 158.06,-342.35 158.15,-342.21 158.20,-342.06 158.25,-341.91 158.26,-341.76 158.27,-341.60 158.25,-341.44 158.22,-341.29 152.62,-322.96 147.01,-304.63 135.87,-266.61 124.72,-228.58 106.81,-187.86 88.89,-147.14 67.39,-112.42 45.89,-77.71 25.39,-61.59 4.89,-45.47 -8.20,-53.41 -21.30,-61.35 -22.71,-85.96 -24.12,-110.57 -18.84,-148.07 -13.56,-185.57 -6.27,-211.69 1.01,-237.81 2.33,-239.54 3.64,-241.27 3.68,-241.43 3.72,-241.58 3.79,-241.72 3.86,-241.86 3.97,-241.98 4.08,-242.09 4.21,-242.18 4.34,-242.27 4.49,-242.33 4.63,-242.38 4.79,-242.40 4.95,-242.42 5.11,-242.40 5.26,-242.38 5.41,-242.32 5.56,-242.26 5.69,-242.17 5.82,-242.08 5.92,-241.96 6.03,-241.84 6.10,-241.70 6.17,-241.56 6.21,-241.41 6.25,-241.26 6.24,-241.10 6.24,-240.94 5.45,-234.29 4.65,-227.65 2.79,-213.06 0.92,-198.48 -1.40,-174.55 -3.72,-150.61 -2.99,-122.10 -2.26,-93.58 -0.54,-69.86 1.17,-46.15 2.12,-29.59 3.06,-13.02 2.18,-6.42 1.30,0.17 1.26,0.32 1.22,0.48 1.14,0.61 1.07,0.75 0.96,0.87 0.85,0.99 0.72,1.08 0.59,1.16 0.44,1.22 0.29,1.27 0.14,1.29 -0.01,1.31 -0.17,1.29 -0.32,1.27 -0.47,1.21 -0.62,1.15 -0.75,1.06 -0.88,0.97 -0.98,0.85 -1.08,0.73 -1.16,0.59 -1.23,0.45 -1.26,0.29 -1.30,0.14 -1.30,-0.01 -1.30,-0.17 -1.30,-0.17 L -1.30,-0.17 Z"></path></g><g transform="translate(215.03268379482847 288.4772272437223) rotate(0 -2.2951419827779063 -19.126183189816146)" stroke="none"><path fill="#1e1e1e" d="M 0.70,1.10 Q 0.70,1.10 -4.13,4.18 -8.97,7.26 -16.40,10.38 -23.84,13.50 -34.36,19.61 -44.88,25.71 -57.25,34.45 -69.62,43.19 -79.67,52.57 -89.71,61.96 -94.46,69.06 -99.20,76.15 -99.33,76.25 -99.45,76.34 -99.60,76.40 -99.75,76.46 -99.90,76.48 -100.06,76.51 -100.22,76.49 -100.38,76.48 -100.52,76.42 -100.67,76.37 -100.81,76.29 -100.94,76.20 -101.05,76.08 -101.16,75.97 -101.23,75.83 -101.31,75.69 -101.35,75.54 -101.39,75.39 -101.40,75.23 -101.40,75.07 -101.37,74.91 -101.33,74.76 -101.26,74.62 -101.19,74.48 -101.09,74.35 -100.99,74.23 -95.16,75.38 -89.33,76.53 -77.24,66.16 -65.15,55.79 -55.16,38.32 -45.18,20.84 -40.05,4.23 -34.92,-12.36 -33.18,-20.73 -31.43,-29.10 -31.56,-31.81 -31.69,-34.52 -31.64,-34.67 -31.59,-34.82 -31.50,-34.95 -31.42,-35.09 -31.30,-35.19 -31.19,-35.30 -31.05,-35.38 -30.91,-35.46 -30.76,-35.50 -30.61,-35.55 -30.45,-35.55 -30.29,-35.56 -30.14,-35.53 -29.98,-35.49 -29.84,-35.43 -29.70,-35.36 -29.57,-35.26 -29.45,-35.16 -29.36,-35.03 -29.26,-34.90 -29.20,-34.76 -29.14,-34.61 -29.12,-34.45 -29.09,-34.30 -29.10,-34.14 -29.12,-33.98 -31.02,-30.96 -32.92,-27.93 -36.70,-15.02 -40.48,-2.12 -43.42,13.92 -46.36,29.97 -47.65,38.38 -48.95,46.80 -46.26,50.02 -43.57,53.24 -34.29,52.90 -25.00,52.55 -11.92,46.81 1.15,41.06 12.76,28.20 24.37,15.33 32.36,-4.53 40.35,-24.39 44.64,-46.00 48.93,-67.60 49.87,-83.34 50.82,-99.08 49.91,-106.12 49.01,-113.16 48.20,-115.78 47.40,-118.39 46.57,-114.74 45.74,-111.09 43.09,-95.83 40.43,-80.57 36.22,-55.14 32.00,-29.72 27.57,-3.51 23.14,22.68 20.82,39.52 18.50,56.35 18.21,63.56 17.93,70.77 21.55,72.94 25.17,75.10 32.53,67.34 39.88,59.58 48.28,44.95 56.68,30.33 64.26,17.01 71.83,3.70 79.57,-3.42 87.31,-10.55 91.52,-13.14 95.74,-15.74 95.94,-15.82 96.13,-15.90 96.34,-15.92 96.56,-15.93 96.76,-15.88 96.97,-15.82 97.14,-15.70 97.32,-15.58 97.45,-15.42 97.58,-15.25 97.65,-15.05 97.72,-14.85 97.72,-14.63 97.72,-14.42 97.66,-14.22 97.59,-14.02 97.46,-13.85 97.34,-13.68 97.16,-13.56 96.99,-13.44 96.78,-13.38 96.58,-13.32 96.37,-13.33 96.15,-13.34 95.96,-13.42 95.76,-13.49 95.60,-13.63 95.43,-13.77 95.32,-13.95 95.21,-14.13 95.16,-14.33 95.12,-14.54 95.14,-14.75 95.16,-14.96 95.25,-15.16 95.33,-15.35 95.48,-15.51 95.62,-15.66 95.81,-15.76 96.00,-15.86 96.21,-15.90 96.41,-15.94 96.62,-15.90 96.83,-15.87 97.02,-15.77 97.21,-15.68 97.36,-15.52 97.51,-15.37 97.60,-15.18 97.69,-14.99 97.71,-14.77 97.74,-14.56 97.69,-14.36 97.65,-14.15 97.54,-13.96 97.43,-13.78 97.27,-13.64 97.11,-13.50 97.11,-13.50 97.11,-13.50 93.09,-11.05 89.08,-8.60 81.58,-1.78 74.09,5.03 66.52,18.33 58.96,31.64 50.37,46.52 41.78,61.39 33.99,69.23 26.21,77.06 21.13,74.53 16.04,71.99 15.97,63.99 15.90,56.00 18.22,39.12 20.55,22.24 24.98,-3.95 29.41,-30.15 33.63,-55.58 37.84,-81.02 40.53,-96.40 43.21,-111.79 44.51,-115.91 45.81,-120.03 46.98,-120.25 48.14,-120.47 49.88,-116.99 51.61,-113.52 52.52,-106.22 53.44,-98.93 52.47,-83.01 51.50,-67.09 47.15,-45.25 42.79,-23.42 34.57,-3.18 26.35,17.05 14.31,30.23 2.28,43.42 -11.29,49.29 -24.87,55.16 -34.84,55.22 -44.81,55.28 -48.09,51.18 -51.37,47.09 -50.15,38.29 -48.94,29.49 -45.97,13.31 -43.00,-2.86 -39.07,-16.09 -35.14,-29.33 -33.42,-31.92 -31.69,-34.52 -31.64,-34.67 -31.59,-34.82 -31.50,-34.95 -31.42,-35.09 -31.30,-35.19 -31.19,-35.30 -31.05,-35.38 -30.91,-35.46 -30.76,-35.50 -30.61,-35.55 -30.45,-35.55 -30.29,-35.56 -30.14,-35.53 -29.98,-35.49 -29.84,-35.43 -29.70,-35.36 -29.57,-35.26 -29.45,-35.16 -29.36,-35.03 -29.26,-34.90 -29.20,-34.76 -29.14,-34.61 -29.12,-34.45 -29.09,-34.30 -29.10,-34.14 -29.12,-33.98 -28.99,-31.28 -28.86,-28.58 -30.64,-20.09 -32.41,-11.59 -37.65,5.27 -42.89,22.13 -53.16,39.95 -63.42,57.76 -76.22,68.32 -89.01,78.87 -94.10,77.51 -99.20,76.15 -99.33,76.25 -99.45,76.34 -99.60,76.40 -99.75,76.46 -99.90,76.48 -100.06,76.51 -100.22,76.49 -100.38,76.48 -100.52,76.42 -100.67,76.37 -100.81,76.29 -100.94,76.20 -101.05,76.08 -101.16,75.97 -101.23,75.83 -101.31,75.69 -101.35,75.54 -101.39,75.39 -101.40,75.23 -101.40,75.07 -101.37,74.92 -101.33,74.76 -101.26,74.62 -101.19,74.48 -101.09,74.36 -100.99,74.23 -96.25,67.14 -91.52,60.05 -81.33,50.55 -71.14,41.04 -58.67,32.24 -46.19,23.44 -35.52,17.26 -24.85,11.08 -17.61,8.06 -10.38,5.04 -5.54,1.97 -0.70,-1.10 -0.56,-1.17 -0.41,-1.24 -0.26,-1.27 -0.10,-1.30 0.04,-1.30 0.20,-1.29 0.35,-1.25 0.51,-1.20 0.64,-1.13 0.78,-1.05 0.90,-0.94 1.01,-0.83 1.09,-0.69 1.18,-0.56 1.23,-0.41 1.28,-0.26 1.29,-0.10 1.31,0.04 1.28,0.20 1.26,0.36 1.20,0.50 1.13,0.65 1.04,0.78 0.94,0.90 0.82,1.00 0.70,1.10 0.70,1.10 L 0.70,1.10 Z"></path></g><g transform="translate(337.44025620965147 326.72959362335445) rotate(0 13.005804569074968 -91.04063198352458)" stroke="none"><path fill="#1e1e1e" d="M 1.28,-0.27 Q 1.28,-0.27 2.60,5.88 3.92,12.04 3.93,12.19 3.95,12.35 3.92,12.51 3.90,12.67 3.84,12.81 3.78,12.96 3.68,13.09 3.59,13.21 3.47,13.31 3.35,13.42 3.20,13.48 3.06,13.55 2.91,13.59 2.75,13.62 2.59,13.62 2.44,13.61 2.28,13.57 2.13,13.53 1.99,13.45 1.86,13.37 1.74,13.26 1.63,13.15 1.54,13.02 1.45,12.89 1.40,12.74 1.35,12.59 6.04,7.58 10.73,2.57 17.80,-14.50 24.86,-31.58 34.07,-57.36 43.27,-83.15 50.25,-113.40 57.23,-143.66 61.07,-171.89 64.91,-200.11 66.55,-213.88 68.18,-227.65 68.00,-230.43 67.82,-233.21 67.85,-233.36 67.89,-233.52 67.96,-233.66 68.04,-233.80 68.14,-233.92 68.25,-234.03 68.38,-234.12 68.51,-234.21 68.66,-234.27 68.80,-234.33 68.96,-234.35 69.12,-234.37 69.27,-234.35 69.43,-234.33 69.58,-234.27 69.73,-234.22 69.86,-234.13 69.99,-234.04 70.09,-233.92 70.20,-233.80 70.27,-233.66 70.35,-233.52 70.39,-233.37 70.42,-233.22 70.42,-233.06 70.43,-232.90 68.07,-228.56 65.71,-224.22 59.47,-212.37 53.23,-200.53 38.68,-176.54 24.13,-152.54 3.89,-115.12 -16.33,-77.69 -35.93,-38.48 -55.52,0.73 -66.52,19.64 -77.51,38.55 -82.17,43.93 -86.83,49.31 -86.93,49.44 -87.02,49.57 -87.15,49.66 -87.27,49.76 -87.41,49.83 -87.56,49.90 -87.71,49.93 -87.87,49.96 -88.02,49.96 -88.18,49.95 -88.33,49.90 -88.49,49.86 -88.62,49.78 -88.76,49.70 -88.87,49.59 -88.99,49.48 -89.07,49.35 -89.16,49.21 -89.21,49.06 -89.26,48.91 -89.27,48.75 -89.28,48.60 -89.25,48.44 -89.23,48.28 -89.17,48.14 -89.10,47.99 -81.59,43.87 -74.07,39.75 -53.47,24.96 -32.86,10.16 -6.45,-7.15 19.94,-24.47 43.52,-37.57 67.09,-50.67 81.58,-56.27 96.06,-61.86 103.48,-62.83 110.90,-63.80 114.20,-60.15 117.50,-56.50 118.83,-51.89 120.16,-47.28 117.93,-44.26 115.71,-41.25 110.15,-39.51 104.59,-37.76 88.27,-32.70 71.95,-27.65 49.24,-18.04 26.52,-8.43 15.97,-3.90 5.41,0.62 5.21,0.67 5.00,0.72 4.79,0.71 4.58,0.69 4.38,0.61 4.19,0.52 4.03,0.38 3.87,0.24 3.76,0.05 3.66,-0.12 3.62,-0.33 3.58,-0.54 3.61,-0.75 3.64,-0.96 3.73,-1.15 3.83,-1.34 3.98,-1.49 4.13,-1.64 4.32,-1.74 4.51,-1.83 4.72,-1.86 4.93,-1.89 5.14,-1.85 5.35,-1.81 5.53,-1.70 5.72,-1.60 5.86,-1.44 6.00,-1.28 6.08,-1.09 6.17,-0.89 6.19,-0.68 6.20,-0.47 6.15,-0.26 6.10,-0.05 5.98,0.11 5.87,0.29 5.70,0.43 5.54,0.56 5.34,0.63 5.14,0.71 4.93,0.71 4.72,0.72 4.51,0.65 4.31,0.59 4.14,0.47 3.96,0.34 3.84,0.17 3.72,0.00 3.65,-0.20 3.59,-0.40 3.60,-0.61 3.60,-0.82 3.68,-1.02 3.75,-1.22 3.88,-1.39 4.02,-1.55 4.20,-1.67 4.38,-1.78 4.38,-1.78 4.38,-1.78 14.94,-6.32 25.50,-10.85 48.34,-20.50 71.17,-30.15 87.51,-35.22 103.84,-40.28 108.87,-41.66 113.89,-43.04 115.87,-45.30 117.85,-47.56 116.65,-51.22 115.45,-54.88 112.80,-58.25 110.15,-61.63 103.57,-60.52 96.99,-59.41 82.68,-53.89 68.36,-48.37 44.87,-35.33 21.38,-22.28 -4.97,-4.99 -31.33,12.29 -52.08,27.18 -72.84,42.07 -79.83,45.69 -86.83,49.31 -86.93,49.44 -87.02,49.57 -87.15,49.66 -87.27,49.76 -87.41,49.83 -87.56,49.90 -87.71,49.93 -87.87,49.96 -88.02,49.96 -88.18,49.95 -88.33,49.90 -88.49,49.86 -88.62,49.78 -88.76,49.70 -88.87,49.59 -88.99,49.48 -89.07,49.35 -89.16,49.21 -89.21,49.06 -89.26,48.91 -89.27,48.75 -89.28,48.60 -89.25,48.44 -89.23,48.28 -89.17,48.14 -89.10,47.99 -84.44,42.61 -79.77,37.23 -68.82,18.39 -57.87,-0.44 -38.26,-39.69 -18.64,-78.94 1.62,-116.42 21.88,-153.91 36.40,-177.83 50.91,-201.75 57.16,-213.62 63.42,-225.49 65.62,-229.35 67.82,-233.21 67.85,-233.36 67.89,-233.52 67.96,-233.66 68.04,-233.80 68.14,-233.92 68.25,-234.03 68.38,-234.12 68.51,-234.21 68.66,-234.27 68.80,-234.33 68.96,-234.35 69.12,-234.37 69.27,-234.35 69.43,-234.33 69.58,-234.27 69.73,-234.22 69.86,-234.13 69.99,-234.04 70.09,-233.92 70.20,-233.80 70.27,-233.66 70.35,-233.52 70.39,-233.37 70.42,-233.22 70.42,-233.06 70.43,-232.90 70.61,-230.12 70.79,-227.35 69.15,-213.55 67.51,-199.76 63.65,-171.41 59.79,-143.07 52.77,-112.67 45.75,-82.27 36.52,-56.42 27.29,-30.57 19.95,-13.09 12.62,4.37 8.27,8.21 3.92,12.04 3.93,12.19 3.95,12.35 3.92,12.51 3.90,12.67 3.84,12.81 3.78,12.96 3.68,13.09 3.59,13.21 3.47,13.31 3.35,13.42 3.20,13.48 3.06,13.55 2.91,13.59 2.75,13.62 2.59,13.62 2.44,13.61 2.28,13.57 2.13,13.53 1.99,13.45 1.86,13.37 1.74,13.26 1.63,13.15 1.54,13.02 1.45,12.89 1.40,12.74 1.35,12.59 0.03,6.43 -1.28,0.27 -1.29,0.11 -1.31,-0.04 -1.28,-0.19 -1.26,-0.35 -1.20,-0.49 -1.14,-0.64 -1.04,-0.77 -0.95,-0.90 -0.83,-1.00 -0.71,-1.10 -0.57,-1.17 -0.42,-1.24 -0.27,-1.27 -0.11,-1.30 0.03,-1.30 0.19,-1.29 0.35,-1.25 0.50,-1.21 0.64,-1.13 0.77,-1.05 0.89,-0.94 1.00,-0.84 1.09,-0.70 1.18,-0.57 1.23,-0.42 1.28,-0.27 1.28,-0.27 L 1.28,-0.27 Z"></path></g><g transform="translate(69.67369155222619 508.8108575904037) rotate(0 212.683157070755 -67.32416482815267)" stroke="none"><path fill="#1e1e1e" d="M -0.95,-0.90 Q -0.95,-0.90 7.85,-10.14 16.65,-19.39 68.50,-48.07 120.34,-76.75 186.90,-93.34 253.45,-109.94 301.97,-116.98 350.48,-124.02 371.95,-127.45 393.41,-130.87 393.62,-130.87 393.84,-130.87 394.04,-130.80 394.24,-130.74 394.41,-130.61 394.58,-130.48 394.69,-130.30 394.81,-130.12 394.87,-129.92 394.92,-129.71 394.91,-129.50 394.90,-129.29 394.82,-129.09 394.74,-128.90 394.60,-128.73 394.46,-128.57 394.28,-128.46 394.10,-128.36 393.89,-128.31 393.68,-128.27 393.47,-128.29 393.26,-128.31 393.07,-128.40 392.88,-128.49 392.72,-128.64 392.57,-128.79 392.47,-128.98 392.37,-129.16 392.34,-129.37 392.31,-129.58 392.34,-129.79 392.38,-130.00 392.48,-130.19 392.58,-130.38 392.73,-130.52 392.89,-130.67 393.08,-130.76 393.27,-130.84 393.48,-130.87 393.70,-130.89 393.90,-130.84 394.11,-130.80 394.29,-130.68 394.47,-130.57 394.61,-130.41 394.75,-130.25 394.82,-130.05 394.90,-129.85 394.91,-129.64 394.92,-129.43 394.87,-129.23 394.81,-129.02 394.69,-128.85 394.57,-128.67 394.40,-128.54 394.23,-128.41 394.03,-128.35 393.83,-128.28 393.83,-128.28 393.83,-128.28 372.34,-124.85 350.86,-121.42 302.47,-114.41 254.08,-107.39 187.84,-90.92 121.59,-74.44 70.06,-46.00 18.53,-17.55 9.74,-8.32 0.95,0.90 0.82,1.00 0.70,1.10 0.56,1.17 0.42,1.24 0.26,1.27 0.11,1.30 -0.04,1.30 -0.20,1.29 -0.35,1.25 -0.50,1.21 -0.64,1.13 -0.78,1.05 -0.89,0.94 -1.01,0.83 -1.09,0.70 -1.18,0.56 -1.23,0.41 -1.28,0.26 -1.29,0.11 -1.31,-0.04 -1.28,-0.20 -1.26,-0.36 -1.20,-0.50 -1.14,-0.65 -1.04,-0.77 -0.95,-0.90 -0.95,-0.90 L -0.95,-0.90 Z"></path></g></svg>