<svg width="1575" height="1580" viewBox="0 0 1575 1580" fill="none" xmlns="http://www.w3.org/2000/svg">
<g clip-path="url(#clip0_201_6)">
<path d="M736.333 2.33334L693.667 6.33334C502.567 29.6986 326.595 122.101 198.866 266.151C71.1372 410.2 0.458603 595.966 0.130905 788.488C-0.196793 981.011 69.849 1167.02 197.087 1311.5C324.325 1455.98 499.981 1548.98 691 1573L721.667 1577C829.668 1585.65 938.294 1571.97 1040.78 1536.81C1143.26 1501.66 1237.42 1445.78 1317.37 1372.66C1397.32 1299.54 1461.37 1210.75 1505.51 1111.8C1549.66 1012.85 1572.96 905.879 1573.97 797.537C1574.98 689.194 1553.67 581.804 1511.38 482.053C1469.08 382.303 1406.7 292.328 1328.13 217.731C1249.55 143.134 1156.45 85.5128 1054.64 48.4555C952.829 11.3982 844.477 -4.30173 736.333 2.33334ZM853.667 51.6667C983.196 63.3295 1107.41 108.742 1213.91 183.376C1320.42 258.011 1405.5 359.26 1460.67 477.029C1515.85 594.798 1539.19 724.972 1528.37 854.575C1517.55 984.177 1472.94 1108.68 1399 1215.67C1324.63 1322.37 1223.49 1407.64 1105.74 1462.89C987.994 1518.15 857.781 1541.45 728.178 1530.46C598.575 1519.47 474.144 1474.58 367.381 1400.28C260.617 1325.99 175.279 1224.92 119.936 1107.21C64.5921 989.505 41.1912 859.31 52.0829 729.698C62.9745 600.087 107.775 475.623 181.986 368.803C256.198 261.984 357.207 176.57 474.872 121.137C592.536 65.7051 722.714 42.2061 852.333 53L853.667 51.6667Z" fill="white"/>
<path d="M744.333 67.6668C636.065 75.6835 530.943 107.726 436.611 161.465C342.28 215.204 261.109 289.289 199 378.333C87.2554 534.104 41.9672 727.885 73.0983 917.046C104.229 1106.21 209.229 1275.26 365 1387C520.77 1498.74 714.551 1544.03 903.713 1512.9C1092.87 1481.77 1261.92 1376.77 1373.67 1221C1456.46 1110.14 1505.69 977.844 1515.5 839.829C1525.31 701.815 1495.3 563.884 1429.02 442.426C1362.75 320.969 1263 221.09 1141.62 154.658C1020.25 88.2258 882.361 58.0329 744.333 67.6668ZM847 78.3334C1035.3 92.6551 1210.21 181.194 1333.23 324.471C1456.25 467.749 1517.32 654.03 1503 842.333C1488.68 1030.64 1400.14 1205.54 1256.86 1328.56C1113.58 1451.59 927.304 1512.66 739 1498.33C645.761 1491.24 554.833 1465.86 471.405 1423.62C387.978 1381.39 313.686 1323.14 252.77 1252.2C129.747 1108.92 68.6783 922.637 83 734.333C97.3217 546.03 185.86 371.128 329.138 248.104C472.416 125.08 658.696 64.0117 847 78.3334Z" fill="white"/>
<path d="M784.333 126.333C768.333 131.667 759 150.333 765.667 166.333C768.333 173 776.333 181 781.667 182.333C785.667 183.667 785.667 183.667 784.333 189L777.667 215.667C751 303.667 720.333 329 691 285L684.333 275.667L689.667 269C697.667 261 699 249 691 241C687 235.667 681.667 233 673.667 233C667 233 661.667 235.667 657.667 241C651 250.333 651 263.667 660.333 270.333L664.333 275.667C664.333 277 649.667 298.333 644.333 302.333C624.333 322.333 604.333 317 584.333 287.667L579 278.333L581.667 274.333C592.333 263.667 584.333 246.333 571 246.333C560.333 246.333 553.667 253 553.667 262.333C553.667 270.333 556.333 275.667 563 278.333C568.333 279.667 568.333 281 568.333 287.667C573.667 329 580.333 361 589.667 379.667L592.333 387.667L588.333 390.333C585.667 391.667 585.667 393 585.667 395.667C588.333 406.333 624.333 414.333 688.333 421L791 423.667C871 423.667 883 422.333 928.333 417C984.333 410.333 1009.67 399.667 995 389L992.333 386.333L996.333 375.667C1005.67 355.667 1013.67 321 1015 291.667L1016.33 281L1021.67 278.333C1033.67 273 1035 259.667 1025.67 250.333C1023 246.333 1021.67 246.333 1015 246.333C1007 246.333 1001.67 250.333 999 258.333C997.667 263.667 997.667 267.667 1003 274.333L1005.67 278.333L1001.67 286.333C991 303.667 977.667 314.333 965.667 314.333C951 314.333 940.333 306.333 928.333 287.667L920.333 275.667L923 271.667C935 262.333 935 245 923 237C917.667 233 905.667 231.667 899 235.667C887 243.667 885.667 262.333 896.333 270.333L900.333 275.667L895 283.667C883 303.667 868.333 310.333 855 303.667C837.667 295.667 819 258.333 804.333 203.667L799 185C804.333 182.333 813.667 177 816.333 173C827 158.333 821.667 137 807 129C800.333 126.333 789.667 125 784.333 126.333ZM804.333 365L792.333 386.333L781.667 365L771 343.667L781.667 322.333L792.333 301L803 322.333L813.667 343.667L804.333 365ZM688.333 331.667L696.333 341L693.667 357L689.667 373L669.667 349C668.333 347.667 669.667 337 673.667 322.333C675 315.667 673.667 314.333 688.333 331.667ZM913.667 334.333L917.667 349L907 359.667C897.667 371.667 895 373 895 370.333L892.333 354.333L888.333 341L899 329L911 318.333L913.667 334.333ZM991 342.333C992.333 346.333 992.333 347.667 985.667 354.333L979 362.333L977.667 354.333L975 343.667L981.667 335.667L987 327.667L989.667 333L991 342.333ZM604.333 335.667L609.667 342.333L608.333 350.333L605.667 359.667C605.667 362.333 593.667 349 593.667 345L597.667 329L604.333 335.667Z" fill="white"/>
<path d="M589.667 417C584.333 422.333 584.333 427.667 589.667 433C593.667 437 593.667 438.333 593.667 453L595 469H589.667C536.433 465.007 483.033 463.672 429.667 465L408.333 466.333L379 469C340.507 473.144 302.535 481.185 265.667 493L243 499.667C229.667 505 211 513 211 515.667L231 547.667C243 566.333 245.667 570.333 243 570.333C237.667 574.333 232.333 579.667 231 583.667C231 586.333 233.667 589 252.333 609C302.686 665.827 347.344 727.456 385.667 793L389.667 799.667L385.667 803.667C380.333 810.333 377.667 818.333 380.333 825C381.667 829 381.667 831.667 377.667 831.667C375 831.667 364.333 842.333 361.667 846.333L360.333 855.667C360.333 862.333 360.333 862.333 356.333 863.667C343 869 337.667 890.333 344.333 903.667L348.333 909L344.333 914.333C340.333 922.333 340.333 926.333 344.333 933C347 938.333 349.667 941 371 954.333C401.667 974.333 421.667 985 427 985C433.667 986.333 433.667 986.333 432.333 990.333L431 1022.33L429.667 1050.33L421.667 1047.67C407 1041 397.667 1039.67 379 1039.67C364.333 1039.67 359 1039.67 351 1042.33C337.667 1046.33 321.667 1054.33 311 1063.67C303 1071.67 289.667 1087.67 287 1094.33L281.667 1106.33C274.504 1123.71 272.837 1142.87 276.889 1161.22C280.942 1179.58 290.519 1196.25 304.333 1209C331.411 1228.3 361.64 1242.73 393.667 1251.67C400.333 1255.67 547 1303.67 559 1306.33C565.667 1307.67 564.333 1307.67 557.667 1311.67C551 1315.67 541.667 1326.33 537.667 1334.33C529.593 1357.94 531.028 1383.77 541.667 1406.33C555 1427.67 564.333 1435.67 585.667 1439.67C604.333 1443.67 635 1439.67 657.667 1430.33L675 1423.67L687 1419.67L704.333 1411.67L756.333 1383.67L785.667 1365L793.667 1361L796.333 1365C797.667 1367.67 799 1367.67 803 1367.67C807 1366.33 809.667 1367.67 816.333 1370.33C836.614 1381.75 857.538 1391.99 879 1401L921.667 1418.33L960.333 1433C983 1441 996.333 1442.33 1015 1437C1047 1426.33 1064.33 1399.67 1064.33 1357C1065.67 1342.33 1064.33 1341 1060.33 1331.67C1056.33 1325 1053.67 1321 1045.67 1314.33L1035 1305L1047 1301C1071.42 1295.94 1095.47 1289.26 1119 1281C1141.81 1275.3 1164.11 1267.72 1185.67 1258.33L1205.67 1250.33L1224.33 1243.67L1264.33 1225C1300.33 1207.67 1308.33 1201 1317.67 1186.33C1323 1175.67 1328.33 1158.33 1328.33 1151.67C1328.33 1134.33 1320.33 1107.67 1309.67 1089C1301.67 1074.33 1287 1061 1272.33 1053C1257.67 1046.33 1240.33 1042.33 1220.33 1043.67C1198.53 1045.43 1177.03 1049.91 1156.33 1057L1152.33 1001V990.333L1156.33 989C1176.07 984.351 1195.64 979.015 1215 973C1231 970.333 1235 969 1239 963.667C1244.33 959.667 1244.33 958.333 1244.33 953L1243 942.333C1240.33 938.333 1240.33 938.333 1245.67 935.667C1249.67 933 1251 930.333 1252.33 925C1257.67 913 1255 902.333 1245.67 895.667L1240.33 891.667L1243 887.667L1244.33 875.667C1244.33 867.667 1244.33 866.333 1240.33 861C1239 858.333 1235 854.333 1231 853L1225.67 849L1229.67 843.667C1233.67 838.333 1233.67 834.333 1233.67 826.333C1232.33 815.667 1219 806.333 1205.67 809H1200.33L1207 793C1229.67 745 1291 659.667 1349.67 595.667C1360.33 582.333 1361.67 581 1352.33 575.667L1344.33 570.333C1341.67 569 1339 571.667 1368.33 534.333L1379 518.333C1379 513 1324.33 497 1272.33 487.667L1247 483.667C1178.08 474.064 1108.59 469.163 1039 469C1020.31 469.256 1001.63 470.146 983 471.667L985.667 446.333L987 439.667C997.667 431.667 999 430.333 999 425L995 417L991 413L983 417C965.667 426.333 925.667 434.333 875 439.667C841.667 442.333 743 442.333 709.667 439.667C673.532 435.153 637.848 427.57 603 417L593.667 413L589.667 417ZM643 453C709.667 466.333 808.333 470.333 889.667 461C919 458.333 960.333 450.333 971 446.333C973.667 445 973.667 446.333 973.667 457L972.333 471.667C972.333 474.333 968.333 475.667 948.333 479.667C935 482.333 896.333 494.333 879 502.333C847 515.667 828.333 527.667 808.333 549L795 562.333L791 557C784.333 547.667 763 529 749.667 521C710.082 497.75 666.779 481.511 621.667 473L607 470.333V465L605.667 451.667V442.333L616.333 446.333L643 453ZM541.667 474.333C617.667 478.333 687 497 735 523.667C749.667 531.667 767 543.667 775 551.667L783 558.333L767 550.333C725.989 530.565 683.111 514.932 639 503.667L623 501L600.333 498.333L569.667 494.333C510.676 491.61 451.574 496.087 393.667 507.667L344.333 523.667L319 531.667C298.096 540.544 278.018 551.253 259 563.667L253.667 566.333L251 562.333C241.971 546.32 232.182 530.746 221.667 515.667C325.373 484.565 433.461 470.603 541.667 474.333ZM1112.33 478.333L1151 479.667C1176.18 479.674 1201.26 482.809 1225.67 489L1232.33 490.333L1243 493L1263 495.667L1284.33 499.667C1301.67 502.333 1364.33 518.333 1364.33 521L1357.67 531.667L1347 546.333C1344.33 551.667 1343 554.333 1336.33 561L1332.33 565L1315 555.667C1205.67 503.667 1077.67 481 971 494.333C921.667 501 881.667 513 841.667 533C821.667 542.333 821.667 543.667 825.667 538.333C839 525 877.667 506.333 913.667 495.667C971 479.667 1056.33 471.667 1112.33 478.333ZM1092.33 502.333L1120.33 505C1174.67 512.524 1227.65 527.79 1277.67 550.333L1304.33 562.333L1339 579.667L1347 583.667L1341.67 590.333L1327 607.667C1315 621 1285.67 657 1275 673C1233.67 729 1211 766.333 1197.67 797L1191 811.667L1183 813L1175 815.667L1196.33 774.333C1209.91 749.83 1225.06 726.226 1241.67 703.667L1243 701L1241.67 699.667L1231 695.667C1208.33 681 1181.67 670.333 1155 663.667L1132.33 658.333C1107 653 1033.67 653 1029.67 658.333L1028.33 834.333L1029.67 1011.67C1029.67 1013 1031 1014.33 1033.67 1014.33C1068.44 1017.84 1101.84 1029.74 1131 1049C1139 1054.33 1139 1055.67 1139 1021L1140.33 990.333C1144.33 990.333 1144.33 991.667 1148.33 1046.33C1149.15 1066.85 1150.93 1087.32 1153.67 1107.67C1155.4 1135.36 1158.52 1162.95 1163 1190.33C1163.08 1200.24 1164.42 1210.1 1167 1219.67L1155 1214.33L1133.67 1207.67L1107 1202.33C1087 1197 1060.33 1193 1033.67 1191.67C1000.33 1189 920.333 1191.67 896.333 1197C872.333 1201 839 1213 813.667 1227.67L804.333 1234.33L799 1239.67V566.333L812.333 558.333C873.337 519.849 944.213 499.93 1016.33 501L1057.67 499.667L1092.33 502.333ZM589.667 506.333C658.977 514.646 726.004 536.384 787 570.333L789.667 727.667C790.02 897 790.464 1066.33 791 1235.67L783 1230.33C725.898 1195.86 660.368 1177.86 593.667 1178.33L584.333 1179.67C581.667 1177 525.667 1183.67 512.333 1187.67L499 1190.33C479 1194.33 459 1199.67 449.667 1203.67C444.333 1207.67 435 1210.33 429.667 1213L420.333 1217V1213C425.187 1189.21 428.748 1165.18 431 1141C432.612 1112.95 434.834 1084.95 437.667 1057C440.333 985 440.333 985 443 983.667C448.333 981 456.333 973 456.333 970.333L457.667 967.667L461.667 970.333C463 970.333 464.333 974.333 464.333 995.667V1021L472.333 1015.67C489.667 1005 520.333 993 545.667 989L560.333 986.333L561.667 806.333V574.333C561.667 570.333 535 567.667 507 567.667C460.333 570.333 411 581 384.333 597C375 601 348.333 621 339 627.667L333.667 633L339 639.667L351 654.333C377.06 683.689 399.036 716.429 416.333 751.667C425.667 770.333 432.333 797 428.333 795.667C420.333 793 415 791.667 407 793H397.667L392.333 783.667C380.638 766.527 369.953 748.718 360.333 730.333C347.875 715.005 336.301 698.979 325.667 682.333L313.667 666.333C294.661 639.54 273.237 614.547 249.667 591.667L240.333 582.333L251 575.667C353.849 517.676 472.303 493.426 589.667 506.333ZM548.333 573L557.667 575.667V985H549.667L501.667 998.333C491 1002.33 473.667 1011.67 469.667 1015.67C467 1017 467 1017 467 1006.33V983.667L465.667 971.667H471C479 971.667 489.667 966.333 492.333 959.667V937C491 934.333 491 934.333 495 933C504.333 933 509.667 926.333 511 914.333C511 906.333 511 905 507 898.333L501.667 889C499 887.667 499 887.667 503 885L511 874.333C520.333 855.667 512.333 839.667 485.667 826.333L452.333 809L432.333 798.333V790.333C421.32 743.888 398.335 701.136 365.667 666.333C356.672 654.942 347.334 643.826 337.667 633L345.667 626.333C379 601 407 587.667 440.333 581L492.333 573H548.333ZM1113.67 659.667C1158.04 662.697 1200.82 677.417 1237.67 702.333L1229.67 711.667L1213.67 735.667C1197.7 762.055 1183.02 789.198 1169.67 817L1140.33 825L1108.33 834.333C1101.67 837 1095 846.333 1092.33 853C1091 859.667 1091 861 1093.67 866.333C1093.67 869 1096.33 873 1099 874.333C1101.67 877 1101.67 878.333 1100.33 878.333C1096.33 878.333 1087 887.667 1084.33 893C1079 903.667 1081.67 914.333 1091 923.667C1096.33 929 1096.33 929 1095 933C1091 939.667 1092.33 951.667 1097.67 958.333C1103 963.667 1112.33 969 1119 970.333C1124.33 970.333 1125.67 970.333 1124.33 974.333C1124.33 978.333 1128.33 987.667 1132.33 987.667C1135 989 1135 991.667 1135 1017C1135 1039.67 1135 1045 1133.67 1043.67L1096.33 1025C1075.95 1016.64 1054.33 1011.69 1032.33 1010.33V834.333L1031 658.333H1036.33C1045.67 657 1100.33 658.333 1112.33 659.667H1113.67ZM431 806.333C447 813 487 835.667 497.667 842.333C507 850.333 511 862.333 507 871.667C504.333 875.667 496.333 882.333 493.667 882.333L484.333 877C469.32 869.133 453.718 862.446 437.667 857L449.667 863.667C464.333 871.667 481.667 881 491 889C500.333 895.667 504.333 902.333 504.333 913C504.333 923.667 500.333 927.667 491 929C485.667 930.333 484.333 929 475 923.667C455 914.333 451 911.667 435 899.667C413.667 883.667 408.333 881 407 881C407 882.333 405.667 882.333 425.667 898.333C447 914.333 459 922.333 473.667 929L484.333 937L485.667 947.667C485.667 958.333 483 963.667 473.667 965C461.667 966.333 452.333 962.333 419 938.333C399 923.667 396.333 922.333 396.333 925C396.333 926.333 423 947.667 439 958.333C451 967.667 451 971.667 440.333 977C431 981 428.333 981 409.667 969L387 955.667C371 947.667 353.667 935.667 352.333 931.667C349.667 927.667 349.667 926.333 352.333 922.333C353.667 918.333 355 917 361.667 918.333C364.333 918.333 364.333 915.667 360.333 911.667C345.667 894.333 344.333 885 356.333 874.333C360.333 871.667 361.667 871.667 365.667 871.667C372.333 873 373.667 871.667 369.667 866.333L368.333 857C371 843.667 377.667 838.333 391 838.333H399L395 834.333C383 821 387 809 404.333 801C411 798.333 413.667 798.333 431 806.333ZM1221.67 822.333C1225.67 825 1227 827.667 1227 830.333C1227 834.333 1220.33 845 1215 850.333C1209.67 854.333 1211 855.667 1220.33 857L1228.33 859.667C1232.33 861 1237.67 873 1237.67 878.333C1237.67 882.333 1235 887.667 1228.33 893C1223 897 1224.33 899.667 1229.67 899.667C1240.33 899.667 1249.67 910.333 1247 919.667C1247 925 1239 933 1233.67 934.333L1224.33 937L1227 938.333C1229.67 938.333 1237.67 947.667 1237.67 951.667C1237.67 961 1232.33 963.667 1191 974.333C1148.33 985 1145.67 986.333 1141.67 983.667C1136.33 981 1131 973 1133.67 971.667C1153.62 963.929 1174.12 957.69 1195 953V951.667C1176.81 952.726 1158.86 956.316 1141.67 962.333L1127 966.333L1116.33 961C1104.33 954.333 1097.67 947.667 1099 941C1101.67 931.667 1104.33 929 1131 921C1154.76 914.255 1178.78 908.473 1203 903.667C1203 901 1163 906.333 1147 911.667L1103 923.667C1100.33 925 1088.33 910.333 1088.33 903.667C1088.33 899.667 1095 889 1099 886.333L1104.33 882.333C1127.58 875.368 1151.17 869.583 1175 865C1173.67 862.333 1132.33 867.667 1116.33 871.667C1108.33 874.333 1108.33 874.333 1105.67 871.667C1099 866.333 1099 853 1104.33 845C1108.33 839.667 1115 837 1136.33 831.667L1163 826.333C1180.33 821 1197.67 817 1207 817C1216.33 817 1216.33 817 1221.67 822.333ZM399 1047.67L419 1055.67L429.667 1059.67L428.333 1077C428.333 1105 424.333 1133 417.667 1173L412.333 1218.33L415 1225L417.667 1227.67L427 1222.33C492.586 1192.85 564.834 1181.35 636.333 1189C692.333 1197 741.667 1213 771 1231.67L777.667 1237L764.333 1242.33C751 1249 749.667 1249 749.667 1253C749.667 1255.67 749.667 1257 748.333 1255.67V1258.33C749.667 1261 749.667 1261 745.667 1261C737.667 1261 701.667 1267.67 671 1275.67L643 1281C622.238 1286.13 601.765 1292.36 581.667 1299.67L573.667 1303.67L564.333 1299.67L532.333 1290.33C490.759 1279.2 449.811 1265.85 409.667 1250.33L375 1238.33L361.667 1233C346.791 1226.74 332.511 1219.16 319 1210.33C312.333 1207.67 300.333 1193 293.667 1182.33C281.667 1162.33 280.333 1149 284.333 1127.67C289.667 1102.33 293.667 1093 309.667 1077C316.333 1070.33 323 1065 331 1061C356.333 1047.67 376.333 1043.67 399 1049V1047.67ZM1245.67 1054.33C1251 1054.33 1260.33 1058.33 1267 1061C1279 1065 1280.33 1066.33 1289.67 1074.33C1300.71 1088.55 1309.69 1104.26 1316.33 1121C1319 1131.67 1320.33 1149 1319 1158.33C1317.67 1170.33 1308.33 1185 1297.67 1194.33C1285.67 1206.33 1249.67 1226.33 1223 1235.67C1215 1238.33 1205.67 1241 1203 1243.67L1185.67 1249C1168.11 1254.6 1150.77 1260.82 1133.67 1267.67C1128.33 1270.33 1111 1275.67 1104.33 1275.67L1097.67 1278.33L1081.67 1283.67L1067 1287.67L1052.33 1291.67L1024.33 1301C1020.33 1303.67 1011 1307.67 1001.67 1309L980.333 1314.33C944.884 1326.78 908.84 1337.46 872.333 1346.33L843 1353C827 1357 820.333 1358.33 812.333 1358.33C801.667 1358.33 800.333 1358.33 799 1355.67L793.667 1342.33C785.026 1320.7 775.688 1299.36 765.667 1278.33C764.348 1269.36 762.568 1260.46 760.333 1251.67L772.333 1246.33L784.333 1242.33L791 1247.67L795 1254.33L803 1246.33C827 1222.33 888.333 1202.33 951 1198.33C1025.83 1195.17 1100.65 1204.63 1172.33 1226.33C1172.83 1187.02 1169.71 1147.74 1163 1109L1160.33 1082.33C1159 1065 1157.67 1065 1172.33 1062.33L1187 1058.33C1203 1053 1228.33 1051.67 1245.67 1054.33ZM732.333 1277L735 1281L743 1305C753.667 1337 756.333 1346.33 752.333 1350.33C749.667 1353 748.333 1350.33 741.667 1331.67L731 1298.33C725.667 1283.67 724.333 1277 727 1275.67C728.333 1274.33 731 1274.33 732.333 1277ZM704.333 1289C709.844 1301.64 714.739 1314.55 719 1327.67C724.333 1341 725.667 1354.33 723 1358.33C721.667 1361 721.667 1361 720.333 1358.33L716.333 1350.33C699 1301 697.667 1297 697.667 1290.33C697.667 1285 697.667 1283.67 700.333 1283.67L704.333 1289ZM676.333 1295.67L681.667 1310.33C688.333 1327.67 696.333 1355.67 696.333 1361L695 1367.67H691C688.333 1365 685.667 1359.67 673.667 1323.67C667 1302.33 665.667 1297 669.667 1294.33C671 1291.67 677.667 1293 676.333 1295.67ZM649.667 1310.33L659 1337C664.333 1350.33 664.333 1355.67 664.333 1363.67C664.333 1378.33 663 1378.33 656.333 1362.33L649.667 1343.67C644.333 1331.67 640.333 1317 640.333 1309C640.333 1297 644.333 1298.33 649.667 1310.33ZM592.333 1307.67C596.333 1315.67 603 1335.67 608.333 1358.33C615.408 1381.77 619.88 1405.92 621.667 1430.33C621.667 1434.33 617.667 1434.33 599 1433C585.667 1431.67 583 1431.67 576.333 1427.67C567 1423.67 552.333 1409 549.667 1402.33C545.667 1395.67 541.667 1382.33 540.333 1374.33L541.667 1353C543 1341 544.333 1338.33 548.333 1331.67C552.333 1325 567 1313 579 1307.67C589.667 1302.33 591 1302.33 592.333 1307.67ZM1037.67 1318.33L1048.33 1327.67C1059 1339.67 1061.67 1370.33 1055 1387.67C1047 1405 1033.67 1421 1024.33 1426.33C1012.33 1433 1008.33 1433 991 1431.67L975 1429C973.667 1427.67 975 1418.33 977.667 1403.67C985.667 1359.67 987 1354.33 995 1335.67L1001.67 1315.67L1012.33 1313C1025.67 1309 1025.67 1309 1037.67 1318.33ZM947 1345C944.333 1361 941.667 1370.33 937.667 1374.33C935 1378.33 933.667 1378.33 932.333 1373C931 1370.33 932.333 1366.33 935 1354.33L940.333 1337C940.333 1334.33 941.667 1333 945.667 1331.67L951 1330.33L947 1345ZM920.333 1342.33L912.333 1366.33C911 1370.33 908.333 1371.67 907 1371.67C903 1371.67 901.667 1367.67 904.333 1357L907 1345L919 1341L920.333 1342.33Z" fill="white"/>
<path d="M1033.67 541C1025.67 543.667 1016.33 549 1012.33 554.333C1003 566.333 1005.67 583.667 1019 598.333C1024.33 605 1032.33 610.333 1039 611.667C1043 613 1044.33 609 1040.33 602.333C1035 593 1033.67 585 1033.67 573C1033.67 563.667 1033.67 561 1036.33 555.667C1040.33 547.667 1043 545 1049.67 542.333L1053.67 539.667H1047L1033.67 541ZM1059 541L1060.33 546.333L1063 557L1064.33 563.667L1067 562.333C1069.67 561 1079 542.333 1079 541H1059ZM1105.67 545L1101.67 551.667C1099 555.667 1099 562.333 1103 587.667L1108.33 610.333C1108.33 611.667 1109.67 613 1112.33 613C1117.67 614.333 1119 613 1119 602.333L1127 581L1128.33 561L1127 543.667L1117.67 542.333C1108.33 542.333 1107 542.333 1105.67 545ZM981.667 545C976.333 546.333 972.333 547.667 971 550.333C965.667 557 964.333 573 967 593C971 617 971 617 977.667 615.667C989.667 615.667 995 614.333 996.333 611.667L993.667 599.667C988.333 578.333 989.667 561 997.667 547.667L1000.33 543.667H995L981.667 545ZM1143 551.667C1139 554.333 1137.67 561 1131 586.333V614.333L1143 617C1155 618.333 1156.33 617 1156.33 610.333C1155 602.333 1156.33 589 1161.67 573C1168.33 551.667 1168.33 551.667 1165.67 550.333L1155 549C1148.33 547.667 1147 547.667 1143 551.667ZM948.333 551.667L937.667 553C921.667 557 909.667 575.667 907 609V626.333H921.667L933.667 623.667V609C933.667 585 937.667 573 949.667 559.667C957.667 550.333 957.667 550.333 953.667 550.333L947 551.667H948.333ZM1209.67 566.333C1207 569 1205.67 571.667 1205.67 575.667L1203 591.667C1193.67 618.333 1193.67 626.333 1197.67 626.333L1209.67 630.333C1220.33 633 1221.67 631.667 1223 622.333L1229.67 605C1236.33 589 1239 581 1236.33 573C1235 567.667 1235 567.667 1225.67 565L1215 562.333L1209.67 566.333ZM1091 569C1085.67 575.667 1080.33 599.667 1080.33 607.667C1081.67 610.333 1081.67 610.333 1088.33 611.667C1097.67 611.667 1100.33 609 1097.67 605C1095 601 1093.67 585 1093.67 575.667C1095 566.333 1093.67 563.667 1091 569Z" fill="white"/>
<path d="M1052.33 570.333C1044.33 570.333 1041.67 571.667 1041.67 573L1045.67 577C1053.67 581 1055 589 1049.67 605L1048.33 611.667H1056.33C1064.33 610.333 1068.33 606.333 1068.33 601L1069.67 574.333C1071 571.667 1068.33 569 1065.67 569L1052.33 570.333ZM852.333 573C843 577 835 583.667 833.667 587.667C831 591.667 831 591.667 833.667 595.667L844.333 606.333C863 618.333 868.333 622.333 871 627.667L875 634.333C875 641 884.333 634.333 888.333 626.333C892.333 613 887 601 872.333 593C860.333 586.333 856.333 582.333 856.333 578.333L859 573C861.667 569 859 569 852.333 573ZM1188.33 583.667C1175 595.667 1168.33 603.667 1164.33 611.667L1160.33 619.667L1177.67 622.333L1180.33 615.667V610.333H1187C1193.67 611.667 1195 609 1189.67 605L1184.33 601L1191 590.333L1200.33 574.333L1188.33 583.667ZM949.667 589L945.667 599.667C943.696 607.294 941.472 614.854 939 622.333C940.333 623.667 956.333 619.667 957.667 617L956.333 605L952.333 589L951 583.667L949.667 589ZM836.333 617C837.667 622.333 844.333 638.333 847 639.667L859 641C868.333 639.667 869.667 639.667 869.667 637C869.667 634.333 868.333 634.333 864.333 631.667C859 630.333 848.333 621 843 614.333C837.667 609 836.333 609 836.333 617ZM1007 621C949.234 625.348 892.527 638.85 839 661C966.98 616.391 1105.41 611.281 1236.33 646.333C1213.67 635.667 1160.33 625 1107 621H1007ZM964.333 657C937.667 659.667 909.667 666.333 892.333 673L847 693L812.333 710.333V978.333L832.333 967.667C863 949 885.667 938.333 909.667 931.667C935 923.667 948.333 922.333 981.667 922.333L1008.33 923.667V910.333C1010.79 843.679 1010.35 776.949 1007 710.333V655.667H989.667L964.333 657ZM1004.33 667.667V677H984.333C961.667 677 939 679.667 923 683.667C891.737 692.857 861.386 704.908 832.333 719.667L815 729V711.667L820.333 709C844.132 698.412 867.694 687.299 891 675.667C904.333 670.333 933.667 663.667 951 662.333L971 659.667L989.667 658.333H1003V667.667H1004.33ZM996.333 679.667L1004.33 681C1004.33 682.333 999 683.667 977.667 683.667C953.667 685 939 686.333 924.333 690.333C907 694.333 905.667 695.667 875 707.667C859 713 837.667 723.667 828.333 730.333C815 739.667 815 738.333 815 735.667C815 733 817.667 730.333 832.333 723.667L856.333 711.667L873.667 703.667L936.333 683.667C947 681 972.333 678.333 980.333 679.667H996.333ZM1004.33 691.667L1003 695.667L988.333 697L949.667 701C905.667 709 889.667 715.667 844.333 738.333L815 751.667V746.333C815 742.333 815 741 827 734.333C848.72 720.88 872.004 710.133 896.333 702.333C905.667 698.333 933.667 690.333 945.667 689L959 687.667L983 686.333H1004.33V691.667ZM1004.33 701C1004.33 703.667 1003 703.667 997.667 703.667L936.333 710.333C896.366 719.261 858.099 734.568 823 755.667C816.333 759.667 815 759.667 815 757L832.333 746.333C881.661 718.039 936.894 701.606 993.667 698.333C1003 698.333 1004.33 699.667 1004.33 701ZM1004.33 711.667V718.333H983C960.333 718.333 939 721 921.667 727.667C885.26 740.116 850.014 755.731 816.333 774.333L815 767.667V762.333L839 749C887.366 723.826 940.554 709.279 995 706.333H1004.33V713V711.667ZM1000.33 722.333L1004.33 723.667C1004.33 725 999 726.333 983 726.333C960.333 727.667 947 730.333 923 735.667C885.202 745.461 848.881 760.259 815 779.667C815 777 872.333 749 896.333 739.667C920.333 730.333 932.333 726.333 955 722.333H1000.33ZM1004.33 734.333V739.667H984.333C948.333 741 916.333 750.333 872.333 769L851 778.333L816.333 797C815 798.333 815 797 815 791.667V783.667L839 771.667L872.333 755.667L925.667 738.333C953.667 731.667 967 729 989.667 729H1004.33V734.333ZM1004.33 745C1004.33 749 1004.33 749 984.333 749C931.177 751.663 879.467 767.222 833.667 794.333L823 799.667C816.333 805 813.667 805 815 802.333C816.333 799.667 837.667 787.667 853.667 781L879 770.333C907.645 758.016 937.624 749.067 968.333 743.667L988.333 742.333C1004.33 742.333 1004.33 742.333 1004.33 745ZM1004.33 757V762.333H993.667C977.667 762.333 940.333 767.667 928.333 770.333C894.019 779.837 860.912 793.258 829.667 810.333L815 818.333V813C815 809 815 807.667 823 803.667C861.394 784.261 901.583 768.632 943 757C953.667 754.333 972.333 753 993.667 751.667H1004.33V757ZM1004.33 766.333L1005.67 769L981.667 770.333L948.333 773C901.712 783.483 856.818 800.542 815 823.667L827 814.333C861.667 795.667 900.333 779.667 928.333 773C951 767.667 1004.33 762.333 1004.33 766.333ZM1000.33 774.333C1005.67 774.333 1005.67 774.333 1005.67 779.667V785L999 783.667C958.144 784.051 917.785 792.667 880.333 809L860.333 817L819 838.333L815 841V835.667C815 830.333 815 830.333 821.667 826.333L849.667 811.667L876.333 799.667C891 790.333 937.667 777 959 774.333H1000.33ZM1000.33 787.667C1004.33 787.667 1005.67 789 1005.67 791.667V794.333L985.667 795.667C965.667 795.667 959 795.667 928.333 802.333C889.778 811.744 852.902 827.034 819 847.667C816.333 849 813.667 849 815 846.333C817.667 839.667 857.667 819.667 889.667 807.667C925.667 794.333 980.333 783.667 1000.33 787.667ZM1003 798.333C1007 798.333 1007 798.333 1007 805C1007 817 1008.33 817 980.333 817C953.667 815.667 949.667 817 920.333 823.667L879 838.333C865.667 842.333 832.333 859.667 824.333 865C816.333 870.333 813.667 870.333 815 865L832.333 855.667L867 838.333C909.272 815.04 957.669 805.268 1005.67 810.333C1005.67 807.667 972.333 806.333 951 809C904.47 816.11 859.953 832.918 820.333 858.333L815 861V857C815 851.667 817.667 849 855 831.667C896.333 811.667 921.667 805 969.667 798.333H1003ZM993.667 819.667H1005.67V833L1001.67 831.667L967 830.333C936.333 830.333 935 830.333 907 841L823 879.667L815 883.667V878.333C815 874.333 815 873 825.667 866.333C850.434 852.644 876.302 841.048 903 831.667C931.958 820.99 962.928 816.891 993.667 819.667ZM997.667 834.333C1005.67 834.333 1005.67 834.333 1005.67 838.333C1005.67 842.333 1005.67 842.333 1001.67 839.667C992.333 835.667 953.667 837 931 842.333C911 846.333 876.333 861 837.667 879.667L816.333 890.333L815 887.667L831 878.333C858.282 866.724 885.396 854.722 912.333 842.333C935 834.333 940.333 833 965.667 833L997.667 834.333ZM999 842.333C1005.67 843.667 1005.67 845 1005.67 849V853H977.667C955 854.333 947 854.333 937.667 857L879 875.667L819 906.333L815 909V894.333L824.333 889L892.333 857C911 850.333 931 843.667 948.333 842.333C963 839.667 989.667 839.667 999 842.333ZM1005.67 858.333C1005.67 862.333 1005.67 862.333 989.667 861C947 859.667 917.667 867.667 857.667 894.333L841.667 901L828.333 909C816.333 915.667 815 917 815 913C855.792 887.834 900.359 869.377 947 858.333L981.667 855.667H1005.67V858.333ZM997.667 865H1005.67V886.333H1001.67C993.667 883.667 965.667 883.667 952.333 885C920.333 889 895 898.333 831 930.333L815 938.333V937C853.966 909.932 897.932 890.895 944.333 881C963.805 878.729 983.446 878.283 1003 879.667C1000.33 875.667 949.667 875.667 933.667 879.667C895.57 891.025 858.89 906.681 824.333 926.333L815 931.667V925L816.333 918.333L827 913C831 909 845.667 902.333 856.333 898.333C907 875.667 929.667 867.667 957.667 865H997.667ZM1001.67 889C1005.67 889 1005.67 890.333 1005.67 894.333V898.333L979 899.667C931 899.667 904.333 907.667 844.333 937L815 953V947.667C815 942.333 815 942.333 828.333 935.667L844.333 926.333L865.667 917C880.259 909.213 895.412 902.528 911 897C933.667 889 951 886.333 979 886.333L1001.67 889ZM1003 902.333L1005.67 905L1001.67 906.333L976.333 905C944.333 905 917.667 911.667 872.333 931.667C853.414 940.538 834.298 948.985 815 957C819 953 875 925 889.667 919.667C925.249 903.974 964.354 897.993 1003 902.333ZM1000.33 909C1005.67 909 1005.67 909 1005.67 914.333V918.333L973.667 919.667L933.667 921C921.667 923.667 891 931.667 880.333 937C868.333 942.333 840.333 957 825.667 967.667L813.667 975.667V969L816.333 962.333L864.333 938.333C921.667 913 940.333 907.667 975 907.667L1000.33 909Z" fill="white"/>
<path d="M945.667 937C916.333 941 893.667 949 871 961C852.845 971.342 834.623 981.565 816.333 991.667L811 997V1201L817.667 1198.33L908.333 1169C935.579 1160.49 963.816 1155.56 992.333 1154.33H1008.33L1007 1098.33C1005.88 1044.99 1004.54 991.661 1003 938.333L995 937H945.667ZM995 941L1003 942.333V983.667L1004.33 1089V1151.67H987C965.667 1153 928.333 1159.67 907 1166.33C876.505 1175.73 846.271 1185.96 816.333 1197C813.667 1197 813.667 997 816.333 994.333L880.333 961C899 950.333 925.667 942.333 951 939.667C959 938.333 987 939.667 995 941ZM1028.33 1066.33L1029.67 1123.67V1141H1044.33C1068.33 1142.33 1077.67 1145 1091 1153C1105.67 1161 1129.67 1177 1132.33 1181C1135 1183.67 1137.67 1182.33 1137.67 1179.67L1139 1121V1063.67L1135 1062.33L1123 1054.33C1109.67 1046.33 1085.67 1034.33 1072.33 1030.33C1060.33 1026.33 1048.33 1023.67 1036.33 1023.67H1028.33V1066.33ZM1067 1030.33C1088.33 1037 1135 1062.33 1135 1067.67V1070.33L1121.67 1062.33C1104.33 1050.33 1099 1047.67 1081.67 1039.67C1065.67 1033 1051 1030.33 1039 1030.33C1033.67 1030.33 1032.33 1030.33 1032.33 1027.67L1044.33 1026.33L1067 1030.33ZM1057.67 1034.33L1097.67 1050.33C1112.33 1057 1135 1073 1135 1077C1135 1081 1133.67 1081 1129.67 1077C1119 1067.67 1088.33 1050.33 1072.33 1046.33L1036.33 1041C1032.33 1042.33 1032.33 1041 1032.33 1037V1033H1040.33L1057.67 1034.33ZM1053.67 1045C1068.33 1047.67 1073.67 1049 1085.67 1054.33C1103 1061 1135 1081 1135 1086.33L1128.33 1083.67C1117.67 1075.67 1107 1067.67 1099 1065C1079 1054.33 1055 1047.67 1039 1047.67C1032.33 1047.67 1029.67 1046.33 1033.67 1045C1036.33 1043.67 1040.33 1043.67 1053.67 1046.33V1045ZM1056.33 1051.67C1076.33 1055.67 1095 1063.67 1117.67 1078.33C1135 1090.33 1135 1090.33 1135 1094.33C1135 1098.33 1135 1098.33 1124.33 1090.33C1099.97 1071.86 1070.82 1060.75 1040.33 1058.33C1032.33 1058.33 1032.33 1058.33 1032.33 1054.33C1032.33 1050.33 1032.33 1050.33 1039 1050.33L1056.33 1051.67ZM1057.67 1063.67C1086.82 1069.1 1113.72 1083.01 1135 1103.67L1127 1098.33C1100.33 1078.33 1071 1066.33 1043 1063.67L1032.33 1062.33C1032.33 1059.67 1047 1061 1057.67 1063.67ZM1065.67 1070.33C1079 1074.33 1100.33 1083.67 1116.33 1094.33C1133.67 1106.33 1135 1107.67 1135 1111.67L1133.67 1115.67L1125.67 1109C1097.67 1086.33 1075 1077 1045.67 1074.33H1032.33V1066.33H1043L1065.67 1070.33ZM1065.67 1079.67C1085.67 1085 1100.33 1093 1121.67 1109C1136.33 1121 1140.33 1126.33 1125.67 1115.67C1111 1105 1096.33 1097 1080.33 1089C1064.33 1082.33 1052.33 1079.67 1040.33 1079.67L1032.33 1078.33C1032.33 1075.67 1053.67 1077 1065.67 1079.67ZM1065.67 1086.33C1091.29 1096 1114.82 1110.49 1135 1129C1135 1130.33 1132.33 1129 1127 1123.67C1101.17 1104.89 1070.78 1093.38 1039 1090.33C1032.33 1090.33 1032.33 1090.33 1032.33 1086.33V1082.33H1044.33L1065.67 1086.33ZM1053.67 1094.33C1080.33 1099.67 1099 1106.33 1116.33 1119.67C1139 1135.67 1141.67 1141 1120.33 1126.33C1092.33 1107.67 1068.33 1098.33 1045.67 1097C1036.33 1097 1032.33 1095.67 1032.33 1094.33H1053.67ZM1064.33 1102.33C1080.33 1107.67 1104.33 1118.33 1121.67 1131.67C1133.67 1139.67 1135 1141 1135 1145V1149L1131 1146.33C1121.67 1138.33 1099 1123.67 1089.67 1119.67C1077.67 1113 1061.67 1109 1045.67 1107.67H1032.33V1099.67H1041.67L1064.33 1102.33ZM1068.33 1114.33L1088.33 1121C1103 1129 1137.67 1153 1135 1154.33L1123 1146.33C1105.67 1134.33 1089.67 1125 1076.33 1119.67C1063 1117 1047 1113 1037.67 1113L1032.33 1111.67C1032.33 1109 1055 1110.33 1068.33 1114.33ZM1053.67 1117C1079 1122.33 1095 1129 1123 1150.33C1132.33 1157 1135 1159.67 1135 1162.33V1165L1131 1161C1120.33 1151.67 1095 1138.33 1076.33 1131.67C1065.67 1127.67 1036.33 1122.33 1033.67 1125L1032.33 1121C1032.33 1115.67 1032.33 1115.67 1037.67 1115.67L1053.67 1118.33V1117ZM1063 1135.67C1080.33 1139.67 1089.67 1143.67 1103 1151.67C1120.33 1162.33 1135 1173 1135 1175.67H1132.33C1116.33 1163.67 1100.33 1153 1091 1149C1077.67 1141 1060.33 1137 1043 1138.33L1032.33 1139.67V1135.67C1032.33 1131.67 1032.33 1131.67 1041.67 1131.67L1063 1134.33V1135.67ZM583 571.667V878.333L592.333 877C647.582 877.348 700.936 897.179 743 933C755 942.333 757.667 943.667 759 941L760.333 633L749.667 625C697.667 591.667 641.667 571.667 599 569H584.333L583 571.667ZM607 573C656.173 581.87 703.223 599.966 745.667 626.333L757.667 635.667L759 642.333C759 654.333 757.667 654.333 747 646.333C721.667 629 687 611.667 664.333 603.667C641.667 597 625.667 594.333 603 594.333H584.333V571.667H591L607 573ZM635 599.667C668.333 606.333 700.333 619.667 741.667 646.333C756.333 655.667 757.667 657 757.667 661C757.667 665 757.667 665 755 663.667L751 661C747 655.667 723 642.333 697.667 629C648.333 603.667 636.333 601 600.333 601C587 601 584.333 601 584.333 598.333C584.333 595.667 617.667 597 635 599.667ZM639 607.667C664.333 614.333 713.667 638.333 736.333 654.333C759 670.333 757.667 667.667 757.667 675.667V682.333L739 669C717.667 654.333 685.667 637 665.667 631.667C640.333 623.667 604.333 618.333 591 621L584.333 622.333V603.667H608.333C624.333 605 633.667 605 639 607.667ZM620.333 625C671.473 632.147 719.303 654.437 757.667 689C757.667 691.667 756.333 691.667 748.333 685C715.453 659.59 677.828 641.004 637.667 630.333C624.333 627.667 589.667 626.333 587 629C585.667 630.333 591 630.333 605.667 630.333C623 630.333 628.333 630.333 639 633C669.667 642.333 700.333 655.667 728.333 674.333C753.667 691.667 757.667 694.333 757.667 701V706.333L749.667 701C708.76 667.637 658.366 648.039 605.667 645L585.667 643.667V627.667C584.333 625 585.667 623.667 591 623.667H604.333L620.333 625ZM635 651.667C672.333 658.333 711 675.667 745.667 701C756.333 709 757.667 710.333 757.667 713V717L753.667 714.333C720.816 689.355 683.799 670.395 644.333 658.333C624.333 653 619 653 601.667 653C585.667 653 585.667 653 585.667 650.333V646.333L603 647.667L635 651.667ZM625.667 657C672.844 668.618 717.254 689.463 756.333 718.333L757.667 725V731.667L741.667 721C723.091 707.853 702.932 697.102 681.667 689L653.667 677C644.333 674.333 613.667 670.333 601.667 670.333C587 670.333 585.667 670.333 585.667 662.333V655.667H600.333L625.667 657ZM624.333 675.667C647 678.333 657.667 681 679 691.667L696.333 699.667C708.333 705 725.667 714.333 744.333 727.667C755 734.333 757.667 737 757.667 739.667C757.667 742.333 757.667 742.333 755 741C719 714.333 675 691.667 643 682.333C631 679.667 612.333 678.333 597.667 678.333L585.667 679.667V671.667L597.667 673L624.333 675.667ZM625.667 683.667C633.667 683.667 647 687.667 655 690.333C683 699.667 729.667 725 752.333 742.333C757.667 746.333 757.667 746.333 757.667 754.333V762.333L752.333 758.333C728.333 738.333 685.667 714.333 655 703.667C641.667 698.333 635 698.333 621.667 697L595 695.667L585.667 697V681H599L625.667 683.667ZM619 699.667C633.667 701 639 701 651 706.333C682.662 717.98 712.688 733.665 740.333 753L753.667 762.333L757.667 767.667H753.667C725.107 746.48 694.244 728.589 661.667 714.333C657.667 713 643 707.667 637.667 707.667C620.476 704.697 603.102 702.915 585.667 702.333C585.667 701 587 699.667 591 699.667H619ZM632.333 709C645.667 711.667 659 715.667 684.333 727.667L744.333 763.667L757.667 773V779.667L756.333 785L749.667 779.667C739 770.333 712.333 754.333 697.667 746.333C665.333 730.21 629.793 721.553 593.667 721H585.667V714.333L587 707.667C588.333 706.333 617.667 707.667 632.333 709ZM633.667 727.667C648.333 730.333 679 741 695 749C720.333 761 756.333 786.333 757.667 791.667C757.667 794.333 757.667 794.333 755 791.667C717.666 763.759 675.012 743.793 629.667 733L601.667 729C588.333 729 585.667 727.667 585.667 726.333L605.667 725L633.667 727.667ZM625.667 734.333C660.333 741 697.667 757 733.667 781C759 798.333 757.667 797 757.667 805V811.667L743 801C712.177 777.155 676.776 759.908 639 750.333L608.333 749H585.667V731.667H596.333L625.667 735.667V734.333ZM639 754.333C683.266 766.171 723.991 788.593 757.667 819.667C757.667 821 753.667 819.667 744.333 811.667C728.333 799.667 724.333 798.333 701.667 786.333C675 771.667 649.667 761 637.667 758.333L607 755.667C591 755.667 585.667 754.333 585.667 753L589.667 751.667C597.667 750.333 629.667 751.667 639 754.333ZM643 763.667C683.117 778.328 721.201 798.042 756.333 822.333L757.667 829V837L749.667 830.333C724.333 809 663 781 633.667 775.667L605.667 773H585.667V759.667H593.667C603 758.333 635 761 643 763.667ZM631 779.667C676.494 792.77 719.044 814.498 756.333 843.667C757.667 846.333 756.333 847.667 753.667 845L736.333 831.667C717.667 818.333 700.333 809 684.333 802.333L663 793C647 786.333 632.333 783.667 607 782.333C587 782.333 585.667 782.333 585.667 779.667L588.333 777C593.667 775.667 620.333 777 631 779.667ZM640.333 789C660.333 794.333 707 815.667 724.333 826.333L739 837C745.085 841.03 750.877 845.485 756.333 850.333L757.667 857V863.667L752.333 859.667L729.667 843.667L713.667 834.333C701.079 826.625 687.66 820.363 673.667 815.667L644.333 803.667C632.333 801 629.667 801 608.333 801H585.667V785H607L639 789H640.333ZM641.667 806.333C665.667 813 687 822.333 709.667 835.667C747 858.333 757.667 865 757.667 870.333V873L753.667 870.333C729.667 850.333 676.333 822.333 649.667 814.333C631 807.667 623 806.333 603 806.333L585.667 805C585.667 802.333 591 802.333 612.333 802.333C625.667 803.667 633.667 803.667 641.667 806.333ZM621.667 811.667C632.333 811.667 651 815.667 665.667 822.333C687 830.333 735 859.667 752.333 873C757.667 877 757.667 878.333 757.667 883.667C757.667 889 756.333 890.333 753.667 886.333L705.667 855.667C659 833 633.667 825 597.667 825H585.667V818.333C585.667 810.333 585.667 810.333 589.667 810.333H623L621.667 811.667ZM621.667 830.333C651 834.333 659 837 697.667 855.667C725.667 870.333 757.667 891.667 757.667 897C757.667 899.667 757.667 899.667 752.333 895.667L743 887.667L728.333 879.667C699 859.667 663 842.333 641.667 838.333L619 834.333C608.333 831.667 601.667 831.667 595 831.667H585.667C585.667 830.333 588.333 829 593.667 829L605.667 827.667L621.667 830.333ZM631 839.667L663 847.667C695.195 861.042 725.284 879.006 752.333 901C756.333 905 757.667 906.333 757.667 911.667V917L752.333 913C739 902.333 689.667 874.333 672.333 866.333L632.333 853C623 851.667 601.667 850.333 591 851.667L585.667 853V835.667H603L631 839.667ZM629.667 857C648.333 859.667 667 867.667 689.667 879.667L716.333 893C735 903.667 757.667 919.667 757.667 923.667C719.288 896.086 676.437 875.337 631 862.333C611 858.333 607 858.333 595 859.667L585.667 858.333C585.667 855.667 587 855.667 592.333 855.667H629.667V857ZM621.667 863.667C643 867.667 649.667 869 663 874.333C695.365 888.472 726.194 905.897 755 926.333C757.667 926.333 757.667 929 757.667 933V939.667L743 929C691 891.667 651 875.667 604.333 875.667H585.667V869C585.667 865 585.667 863.667 588.333 863.667H621.667Z" fill="white"/>
<path d="M592.333 894.333L583 895.667L581.667 1022.33V1146.33H589.667C609.667 1146.33 627 1149 659 1159.67C695.17 1168.73 729.468 1184.08 760.333 1205V959.667L755 955.667C710.702 915.032 652.432 893.061 592.333 894.333ZM636.333 901L669.667 909C700.167 920.758 728.541 937.422 753.667 958.333L757.667 962.333V1199.67L751 1195.67C700.905 1164.8 644.286 1146.08 585.667 1141L584.333 1018.33V897H600.333C613.667 897 621.667 898.333 636.333 901ZM540.333 1002.33C528.333 1003.67 520.333 1007.67 507 1014.33C489.667 1021 479 1027.67 469.667 1037L461.667 1045L463 1097C463.565 1125.9 463.12 1154.8 461.667 1183.67L475 1170.33L496.333 1150.33C512.333 1141 535 1133 549.667 1133L557.667 1131.67C560.333 1130.33 560.333 1127.67 560.333 1065V999.667H553.667L539 1002.33H540.333ZM557.667 1003.67C557.667 1005 555 1006.33 551 1006.33L513.667 1015.67C501.667 1019.67 488.333 1027.67 476.333 1038.33L465.667 1046.33C464.333 1042.33 489.667 1023.67 509.667 1014.33C532.333 1005 557.667 999.667 557.667 1003.67ZM557.667 1013V1017H549.667C539 1017 523 1021 512.333 1025C501.667 1030.33 485.667 1039.67 475 1050.33C465.667 1058.33 465.667 1058.33 465.667 1055.67C465.667 1050.33 485.667 1033 499 1025C512.333 1017 540.333 1009 553.667 1009C557.667 1009 557.667 1009 557.667 1013ZM557.667 1022.33C557.667 1023.67 556.333 1025 544.333 1025C531 1026.33 521.667 1027.67 512.333 1031.67C504.333 1035.67 487 1047.67 476.333 1057C471 1061 467 1065 465.667 1063.67C464.333 1062.33 484.333 1045 495 1038.33C513.667 1026.33 531 1019.67 548.333 1019.67C556.333 1019.67 557.667 1019.67 557.667 1022.33ZM557.667 1031.67C557.667 1035.67 557.667 1035.67 551 1035.67C531 1035.67 500.333 1050.33 476.333 1070.33C465.667 1079.67 465.667 1079.67 465.667 1074.33C465.667 1070.33 467 1069 476.333 1059.67C497.667 1042.33 513.667 1033 527 1030.33L537.667 1029L548.333 1027.67H557.667V1031.67ZM557.667 1041L552.333 1042.33C541.667 1042.33 529.667 1045 520.333 1049C508.333 1053 488.333 1067.67 473.667 1078.33L465.667 1083.67L476.333 1073C503 1051.67 529.667 1038.33 549.667 1038.33C556.333 1038.33 557.667 1038.33 557.667 1041ZM557.667 1049V1054.33H547C527 1054.33 503 1066.33 480.333 1085L467 1095.67L465.667 1093C465.667 1089 475 1081 491 1069C515 1051.67 529.667 1046.33 551 1045H557.667V1049ZM557.667 1058.33L551 1059.67C531 1059.67 504.333 1071.67 484.333 1089C465.667 1103.67 465.667 1105 465.667 1102.33C465.667 1099.67 476.333 1090.33 489.667 1079.67C504.333 1069 528.333 1058.33 543 1057C555 1055.67 557.667 1055.67 557.667 1058.33ZM557.667 1069V1074.33H548.333C537.667 1074.33 528.333 1077 513.667 1083.67C496.319 1091.45 480.513 1102.29 467 1115.67L465.667 1111.67C465.667 1109 467 1106.33 475 1099.67C503 1075.67 527 1062.33 549.667 1062.33H557.667V1069ZM557.667 1078.33C557.667 1081 556.333 1081 548.333 1081C533.667 1081 528.333 1082.33 511 1091.67C499 1097 489.667 1103.67 471 1119.67L465.667 1122.33C465.667 1119.67 477.667 1109 489.667 1099.67L528.333 1079.67L553.667 1075.67C556.333 1075.67 557.667 1075.67 557.667 1078.33ZM557.667 1090.33V1098.33L545.667 1099.67C531 1101 520.333 1105 507 1111.67C493.667 1119.67 487 1123.67 476.333 1134.33L465.667 1141L485.667 1122.33C504.333 1107.67 527 1097 545.667 1095.67L556.333 1094.33C557.667 1091.67 536.333 1094.33 527 1097C507 1103.67 487 1115.67 472.333 1129L465.667 1135.67V1131.67C465.667 1127.67 467 1126.33 475 1119.67C488.333 1107.67 500.333 1099.67 509.667 1094.33C527 1085 533.667 1083.67 547 1083.67H557.667V1090.33ZM557.667 1106.33V1113H547C535 1114.33 519 1118.33 509.667 1123.67L471 1150.33L465.667 1155.67V1151.67C465.667 1147.67 467 1145 475 1138.33C500.333 1115.67 527 1102.33 553.667 1101C557.667 1101 557.667 1101 557.667 1106.33ZM557.667 1125V1130.33H544.333C525.667 1131.67 505.667 1139.67 489.667 1151.67L464.333 1177L465.667 1171.67C465.667 1167.67 467 1165 475 1158.33C497.667 1135.67 527 1121 549.667 1121H557.667V1125Z" fill="white"/>
</g>
<defs>
<clipPath id="clip0_201_6">
<rect width="1575" height="1580" fill="white"/>
</clipPath>
</defs>
</svg>
